# xmcd CD database file
#
# Track frame offsets:
#	180
#	20290
#	41600
#	66310
#	91055
#	111361
#	132502
#	154097
#	180137
#	203073
#	226570
#	250411
#	268454
#	292103
#
# Disc length: 4295 seconds
#
# Revision: 0
# Processed by: cddbd v1.4PL0 Copyright (c) Steve Scherf et al.
# Submitted via: CDex 1.50
#
DISCID=c210c50e
DTITLE=Adam Makowicz - A Tribute To Art Tatum
DYEAR=1997
DGENRE=Jazz
TTITLE0=I Cover The Waterfront
TTITLE1=Humoresque
TTITLE2=Willow Weep For Me
TTITLE3=I Know That You Know
TTITLE4=Prelude No. 7 Opus 28 - Chopin
TTITLE5=Begin The Beguine
TTITLE6=Smoke Gets In Your Eyes
TTITLE7=I Loves You Porgy
TTITLE8=Jitterbug Waltz
TTITLE9=Night And Day
TTITLE10=Caravan
TTITLE11=In A Sentimental Mood
TTITLE12=I Can't Get Started
TTITLE13=Just One Of Those Things
EXTD=YEAR: 1997
EXTT0=
EXTT1=
EXTT2=
EXTT3=
EXTT4=
EXTT5=
EXTT6=
EXTT7=
EXTT8=
EXTT9=
EXTT10=
EXTT11=
EXTT12=
EXTT13=
PLAYORDER=
